<svg height="512pt" viewBox="0 0 512 512" width="512pt" xmlns="http://www.w3.org/2000/svg"><path d="m215.605469 504.425781h-167.636719c-22.308594 0-40.394531-18.085937-40.394531-40.394531v-167.636719c0-22.308593 18.085937-40.394531 40.394531-40.394531h167.636719c22.308593 0 40.394531 18.085938 40.394531 40.394531v167.636719c0 22.308594-18.085938 40.394531-40.394531 40.394531zm0 0" fill="#88e9ff"/><path d="m231.695312 259.339844c1.347657 4.027344 2.085938 8.335937 2.085938 12.816406v187.835938c0 11.15625-9.042969 20.195312-20.195312 20.195312h-187.835938c-5.71875 0-11.15625-1.195312-16.089844-3.339844 5.363282 16.023438 20.480469 27.578125 38.308594 27.578125h167.636719c22.308593 0 40.394531-18.085937 40.394531-40.394531v-167.636719c0-16.589843-10.003906-30.835937-24.304688-37.054687zm0 0" fill="#2dd3f9"/><path d="m215.605469 296.394531v167.636719h-167.636719v-167.636719zm0 0" fill="#c6e3f7"/><path d="m193.390625 296.394531v125.222657c0 11.15625-9.042969 20.195312-20.199219 20.195312h-125.222656v22.21875h167.636719v-167.636719zm0 0" fill="#aacee0"/><path d="m464.03125 504.425781h-167.636719c-22.308593 0-40.394531-18.085937-40.394531-40.394531v-167.636719c0-22.308593 18.085938-40.394531 40.394531-40.394531h167.636719c22.308594 0 40.394531 18.085938 40.394531 40.394531v167.636719c0 22.308594-18.085937 40.394531-40.394531 40.394531zm0 0" fill="#ffe266"/><path d="m480.121094 259.339844c1.347656 4.027344 2.089844 8.335937 2.089844 12.816406v187.835938c0 11.15625-9.046876 20.195312-20.199219 20.195312h-187.832031c-5.722657 0-11.160157-1.195312-16.089844-3.339844 5.359375 16.023438 20.476562 27.578125 38.304687 27.578125h167.636719c22.308594 0 40.394531-18.085937 40.394531-40.394531v-167.636719c0-16.589843-10.003906-30.835937-24.304687-37.054687zm0 0" fill="#fcd21d"/><path d="m464.03125 296.394531v167.636719h-167.636719v-167.636719zm0 0" fill="#c6e3f7"/><path d="m441.816406 296.394531v125.222657c0 11.15625-9.042968 20.195312-20.199218 20.195312h-125.222657v22.21875h167.636719v-167.636719zm0 0" fill="#aacee0"/><path d="m339.820312 256h-167.640624c-22.308594 0-40.394532-18.085938-40.394532-40.394531v-167.636719c0-22.308594 18.085938-40.394531 40.394532-40.394531h167.636718c22.3125 0 40.394532 18.085937 40.394532 40.394531v167.636719c.003906 22.308593-18.082032 40.394531-40.390626 40.394531zm0 0" fill="#ff5c64"/><path d="m355.90625 10.914062c1.347656 4.027344 2.089844 8.335938 2.089844 12.816407v187.835937c0 11.152344-9.042969 20.195313-20.195313 20.195313h-187.835937c-5.722656 0-11.160156-1.195313-16.089844-3.339844 5.359375 16.023437 20.480469 27.574219 38.304688 27.574219h167.636718c22.3125 0 40.394532-18.082032 40.394532-40.390625v-167.636719c.003906-16.589844-10-30.835938-24.304688-37.054688zm0 0" fill="#2dd3f9"/><path d="m355.90625 10.914062c1.347656 4.027344 2.089844 8.335938 2.089844 12.816407v187.835937c0 11.152344-9.042969 20.195313-20.195313 20.195313h-187.835937c-5.722656 0-11.160156-1.195313-16.089844-3.339844 5.359375 16.023437 20.480469 27.574219 38.304688 27.574219h167.636718c22.3125 0 40.394532-18.082032 40.394532-40.390625v-167.636719c.003906-16.589844-10-30.835938-24.304688-37.054688zm0 0" fill="#ff2444"/><path d="m339.820312 47.96875v167.636719h-167.636718v-167.636719zm0 0" fill="#c6e3f7"/><path d="m317.601562 47.96875v125.222656c0 11.15625-9.042968 20.195313-20.195312 20.195313h-125.226562v22.21875h167.636718v-167.636719zm0 0" fill="#aacee0"/><path d="m223.179688 464.03125v-167.636719c0-4.183593-3.390626-7.574219-7.574219-7.574219h-167.636719c-4.183594 0-7.574219 3.390626-7.574219 7.574219v167.636719c0 4.183594 3.390625 7.574219 7.574219 7.574219h167.636719c4.183593 0 7.574219-3.390625 7.574219-7.574219zm-15.148438-7.574219h-152.488281v-152.488281h152.488281zm0 0"/><path d="m106.539062 421.113281c-4.183593 0-7.574218 3.390625-7.574218 7.574219 0 4.179688 3.390625 7.574219 7.574218 7.574219h52.511719c4.183594 0 7.574219-3.394531 7.574219-7.574219 0-4.183594-3.390625-7.574219-7.574219-7.574219h-18.679687v-89.375c0-2.625-1.359375-5.0625-3.59375-6.441406-2.230469-1.378906-5.019532-1.507813-7.367188-.332031l-26.257812 13.128906c-3.742188 1.871094-5.257813 6.421875-3.386719 10.164062 1.871094 3.738282 6.421875 5.253907 10.160156 3.386719l15.296875-7.648437v77.117187zm0 0"/><path d="m504.425781 395.867188c4.183594 0 7.574219-3.390626 7.574219-7.574219v-91.898438c0-26.449219-21.519531-47.96875-47.96875-47.96875h-89.277344c8.074219-8.585937 13.035156-20.128906 13.035156-32.820312v-167.636719c-.003906-26.449219-21.519531-47.96875-47.96875-47.96875h-167.640624c-26.449219 0-47.964844 21.519531-47.964844 47.96875v46.453125c0 4.183594 3.390625 7.574219 7.570312 7.574219 4.183594 0 7.574219-3.390625 7.574219-7.574219v-46.453125c0-18.097656 14.726563-32.820312 32.824219-32.820312h167.636718c18.09375 0 32.820313 14.722656 32.820313 32.820312v167.636719c0 18.097656-14.726563 32.820312-32.820313 32.820312h-167.636718c-18.097656 0-32.824219-14.722656-32.824219-32.820312v-86.847657c0-4.183593-3.390625-7.574218-7.574219-7.574218-4.179687 0-7.570312 3.390625-7.570312 7.574218v86.847657c0 12.6875 4.960937 24.234375 13.03125 32.820312h-89.277344c-26.449219 0-47.96875 21.519531-47.96875 47.96875v167.636719c0 26.449219 21.519531 47.96875 47.96875 47.96875h19.1875c4.183594 0 7.574219-3.390625 7.574219-7.574219 0-4.183593-3.390625-7.574219-7.574219-7.574219h-19.1875c-18.097656 0-32.820312-14.722656-32.820312-32.820312v-167.636719c0-18.097656 14.722656-32.820312 32.820312-32.820312h167.636719c18.097656 0 32.820312 14.722656 32.820312 32.820312v167.636719c0 18.097656-14.722656 32.820312-32.820312 32.820312h-113.105469c-4.183594 0-7.574219 3.390626-7.574219 7.574219 0 4.183594 3.390625 7.574219 7.574219 7.574219h113.105469c16.949219 0 31.859375-8.84375 40.394531-22.148438 8.535156 13.304688 23.445312 22.148438 40.394531 22.148438h167.636719c26.449219 0 47.96875-21.519531 47.96875-47.96875v-40.394531c0-4.183594-3.390625-7.574219-7.574219-7.574219-4.183593 0-7.574219 3.390625-7.574219 7.574219v40.394531c0 18.097656-14.722656 32.820312-32.820312 32.820312h-167.636719c-18.097656 0-32.820312-14.722656-32.820312-32.820312v-167.636719c0-18.097656 14.722656-32.820312 32.820312-32.820312h167.636719c18.097656 0 32.820312 14.722656 32.820312 32.820312v91.894531c0 4.1875 3.390626 7.578126 7.574219 7.578126zm0 0"/><path d="m296.394531 288.820312c-4.183593 0-7.574219 3.390626-7.574219 7.574219v167.636719c0 4.183594 3.390626 7.574219 7.574219 7.574219h167.636719c4.183594 0 7.574219-3.390625 7.574219-7.574219v-167.636719c0-4.183593-3.390625-7.574219-7.574219-7.574219zm160.0625 167.636719h-152.488281v-152.488281h152.488281zm0 0"/><path d="m406.46875 421.113281h-37.363281c-8.632813 0-15.65625-7.023437-15.65625-15.652343 0-4.183594-3.390625-7.574219-7.570313-7.574219-4.183594 0-7.574218 3.390625-7.574218 7.574219 0 16.980468 13.816406 30.800781 30.800781 30.800781h37.363281c15.3125 0 27.769531-12.460938 27.769531-27.773438v-11.105469c0-7.953124-3.363281-15.132812-8.738281-20.199218 5.375-5.066406 8.738281-12.246094 8.738281-20.195313v-11.109375c0-15.3125-12.457031-27.769531-27.769531-27.769531h-37.363281c-16.984375 0-30.800781 13.816406-30.800781 30.800781v6.058594c0 4.183594 3.390624 7.574219 7.574218 7.574219 4.179688 0 7.570313-3.390625 7.570313-7.574219v-6.058594c0-8.632812 7.023437-15.652344 15.65625-15.652344h37.363281c6.960938 0 12.625 5.660157 12.625 12.621094v11.109375c0 6.960938-5.664062 12.621094-12.625 12.621094h-27.265625c-4.183594 0-7.574219 3.390625-7.574219 7.574219s3.390625 7.574218 7.574219 7.574218h27.265625c6.960938 0 12.625 5.664063 12.625 12.625v11.105469c0 6.960938-5.664062 12.625-12.625 12.625zm0 0"/><path d="m339.820312 223.179688c4.183594 0 7.574219-3.390626 7.574219-7.574219v-167.636719c0-4.183594-3.390625-7.574219-7.574219-7.574219h-167.640624c-4.183594 0-7.574219 3.390625-7.574219 7.574219v167.636719c0 4.183593 3.390625 7.574219 7.574219 7.574219zm-160.066406-167.636719h152.488282v152.488281h-152.488282zm0 0"/><path d="m256.980469 67.671875c-13.003907-.296875-25.277344 4.601563-34.554688 13.699219-9.28125 9.097656-14.394531 21.261718-14.394531 34.257812 0 4.183594 3.390625 7.574219 7.574219 7.574219 4.183593 0 7.574219-3.390625 7.574219-7.574219 0-8.890625 3.5-17.214844 9.847656-23.441406 6.351562-6.222656 14.75-9.53125 23.652344-9.375 17.421874.351562 32.140624 15.511719 32.140624 33.109375v.503906c0 7.0625-3.3125 13.3125-9.300781 17.578125l-68.277343 48.144532c-2.699219 1.902343-3.855469 5.332031-2.855469 8.480468.996093 3.144532 3.917969 5.28125 7.21875 5.28125h80.789062c4.183594 0 7.574219-3.390625 7.574219-7.570312 0-4.183594-3.390625-7.574219-7.574219-7.574219h-56.90625l48.789063-34.402344c9.972656-7.105469 15.691406-18.015625 15.691406-29.9375v-.503906c0-26.085937-21.078125-47.730469-46.988281-48.25zm0 0"/></svg>